<?xml version="1.0" encoding="UTF-8"?>
<svg id="Layer_1" xmlns="http://www.w3.org/2000/svg" version="1.1" viewBox="0 0 100 100">
  <!-- Generator: Adobe Illustrator 29.2.1, SVG Export Plug-In . SVG Version: 2.1.0 Build 116)  -->
  <path d="M5.5,51.9c-2.2-13.5,2.1-27.3,11.5-37.2C26.6,4.9,40.2,0,53.8,1.8c13.6,1.7,25.6,9.7,32.3,21.6-2.1.8-3.9,2-5.5,3.5l-5.4,5.4-15.8-3.4c-2.4-.5-5-.4-7.4.3-2,.6-3.9,1.6-5.4,3l-3.7,3.2c-2.4,2.1-3.6,5.1-3.5,8.2.2,3.1,1.8,6,4.3,7.8-.8.5-1.6,1-2.3,1.7l-1.7,1.5c-3.5,3.1-4.5,8.2-2.4,12.4l-15.2,12.4c-8.9-6.7-14.8-16.6-16.6-27.5h0ZM13.8,97.1h0c.8.3,1.6.6,2.4.8h.3c.3.2.6.2.9.3h.4c.3.1.6.2.9.2h0c1.7.2,3.4.2,5.1,0h.9c0-.1,0-.1,0-.1,3.1-.5,6.1-1.7,8.7-3.6l18.2-13.7-2.1-5.4-5.4-3-16.9,13.8c-1.4,1.1-3,1.7-4.7,2-.9.1-1.8.2-2.7,0h-1c0,0-.3-.1-.3-.1-.4,0-.9-.2-1.3-.4-3.4-1.2-6-4.1-6.8-7.6-2.9-3.1-5.4-6.6-7.5-10.4-.3.7-.6,1.5-.9,2.3-2.1,6.5-.8,13.7,3.6,18.9,2.2,2.6,5,4.7,8.2,5.9h0ZM97.2,33.4c-1.3-1.5-3.2-2.4-5.2-2.5-2,0-3.9.7-5.4,2.1l-8.8,8.6-20.3-4.4c-1.9-.4-3.8.1-5.3,1.4l-3.7,3.2c-.4.4-.6.9-.6,1.4,0,.5.4,1,.8,1.3l16.4,9.5-5.6,5.5-7.8-1.3c-1.7-.3-3.5.2-4.8,1.4l-1.7,1.5h0c-.4.4-.6.9-.6,1.4,0,.5.4,1,.9,1.3l10.6,5.7,4.3,11.3c.2.5.6.9,1.1,1,.5.1,1.1,0,1.5-.4l1.7-1.5c1.3-1.1,2-2.8,1.9-4.6l-.4-8,6.1-4.8,7.3,17.5c.3.8,1.2,1.2,2,.9.2,0,.4-.2.6-.3l3.7-3.2h0c1.4-1.3,2.2-3.2,2-5.1l-1.8-20.7,9.7-7.6c1.6-1.2,2.6-3.1,2.8-5.1.2-2-.5-4-1.8-5.5h0Z"/>
</svg>